<?xml version="1.0" encoding="utf-8"?>
<!-- Generator: Adobe Illustrator 15.0.0, SVG Export Plug-In . SVG Version: 6.00 Build 0)  -->
<!DOCTYPE svg PUBLIC "-//W3C//DTD SVG 1.1//EN" "http://www.w3.org/Graphics/SVG/1.1/DTD/svg11.dtd">
<svg version="1.1" id="Ebene_1" xmlns="http://www.w3.org/2000/svg" xmlns:xlink="http://www.w3.org/1999/xlink" x="0px" y="0px"
	 width="32px" height="27.793px" viewBox="0 0 32 27.793" enable-background="new 0 0 32 27.793" xml:space="preserve">
<path fill="#4B87C6" d="M17.556,9.45c0.435,0.436,0.646,0.945,0.646,1.557c0,0.613-0.211,1.122-0.646,1.557
	c-0.434,0.434-0.942,0.645-1.558,0.645c-0.612,0-1.12-0.211-1.554-0.646c-0.442-0.441-0.655-0.951-0.651-1.56
	c0.003-0.608,0.216-1.116,0.651-1.552c0.435-0.435,0.942-0.647,1.552-0.651h0.015C16.613,8.799,17.118,9.012,17.556,9.45z M31,3.5
	v15c0,1.379-1.121,2.5-2.5,2.5H13.395c-0.111,0-0.22,0.037-0.308,0.105l-6.645,5.181l-0.106-4.797C6.33,21.217,6.108,21,5.836,21
	H3.5C2.122,21,1,19.879,1,18.5v-15C1,2.122,2.122,1,3.5,1h25C29.879,1,31,2.122,31,3.5z M24.196,10.503l-2.051-0.837
	c-0.019-0.091-0.038-0.181-0.061-0.271c-0.024-0.1-0.053-0.199-0.087-0.297l1.354-1.739c0.155-0.199,0.138-0.482-0.041-0.661
	L20.31,3.697c-0.177-0.178-0.46-0.196-0.66-0.041l-1.745,1.356c-0.09-0.029-0.182-0.057-0.275-0.081
	c-0.096-0.026-0.191-0.048-0.288-0.069l-0.837-2.051c-0.095-0.232-0.348-0.359-0.592-0.294L11.82,3.608
	c-0.244,0.065-0.401,0.301-0.366,0.551l0.303,2.199c-0.006,0.006-0.013,0.012-0.019,0.019l-0.37,0.37
	c-0.005,0.005-0.011,0.011-0.017,0.017l-2.2-0.303C8.905,6.423,8.666,6.583,8.601,6.827L7.51,10.919
	c-0.065,0.243,0.061,0.497,0.294,0.592l2.051,0.837c0.018,0.091,0.038,0.181,0.06,0.271c0.024,0.1,0.053,0.199,0.087,0.297
	l-1.354,1.739c-0.155,0.199-0.137,0.482,0.041,0.661l3.001,3c0.179,0.178,0.462,0.195,0.66,0.041l1.745-1.356
	c0.09,0.03,0.183,0.058,0.278,0.082c0.095,0.025,0.189,0.048,0.284,0.067l0.824,2.037c0.078,0.192,0.264,0.313,0.463,0.313
	c0.042,0,0.086-0.006,0.129-0.017l4.092-1.092c0.244-0.065,0.4-0.302,0.366-0.552l-0.299-2.176c0.01-0.009,0.019-0.019,0.028-0.027
	l0.368-0.368c0.006-0.007,0.012-0.013,0.018-0.019l2.2,0.303c0.257,0.031,0.486-0.123,0.552-0.366l1.091-4.092
	C24.555,10.852,24.429,10.598,24.196,10.503z"/>
<path fill="#F6F6F6" d="M14.009,15.936c0.065,0,0.13,0.013,0.192,0.038c0.134,0.056,0.274,0.104,0.424,0.142
	c0.157,0.041,0.314,0.075,0.471,0.1c0.173,0.027,0.32,0.144,0.386,0.307l0.761,1.882l3.238-0.864l-0.279-2.031
	c-0.028-0.205,0.072-0.405,0.253-0.506c0.039-0.022,0.074-0.047,0.103-0.075l0.365-0.366c0.044-0.044,0.087-0.094,0.128-0.147
	c0.108-0.143,0.278-0.219,0.465-0.191l2.031,0.279l0.863-3.24l-1.897-0.774c-0.16-0.066-0.275-0.21-0.304-0.382
	c-0.026-0.16-0.057-0.318-0.095-0.474c-0.034-0.139-0.081-0.277-0.142-0.413c-0.076-0.168-0.052-0.365,0.062-0.511l1.257-1.615
	l-2.376-2.377l-1.617,1.257c-0.142,0.11-0.333,0.135-0.498,0.067c-0.135-0.056-0.275-0.103-0.426-0.142
	c-0.158-0.042-0.313-0.075-0.47-0.099c-0.173-0.027-0.319-0.143-0.385-0.305l-0.774-1.897l-3.24,0.864l0.279,2.031
	c0.025,0.179-0.048,0.356-0.192,0.466c-0.053,0.041-0.102,0.082-0.146,0.125l-0.37,0.37c-0.042,0.043-0.085,0.093-0.126,0.147
	c-0.11,0.143-0.286,0.217-0.466,0.192l-2.031-0.28l-0.863,3.24l1.897,0.774c0.161,0.066,0.276,0.21,0.305,0.382
	c0.026,0.161,0.057,0.318,0.095,0.475c0.034,0.139,0.081,0.276,0.142,0.412c0.075,0.168,0.052,0.365-0.062,0.511l-1.257,1.615
	l2.377,2.376l1.617-1.256C13.791,15.972,13.899,15.936,14.009,15.936z M16,14.208c-0.881,0-1.642-0.316-2.263-0.938
	c-0.632-0.63-0.95-1.395-0.944-2.272c0.004-0.872,0.322-1.63,0.944-2.253c0.622-0.622,1.379-0.939,2.253-0.944
	c0.001,0,0.02,0,0.021,0c0.868,0,1.625,0.317,2.251,0.944c0.623,0.624,0.938,1.385,0.938,2.263c0,0.879-0.315,1.641-0.938,2.263
	C17.642,13.892,16.88,14.208,16,14.208z"/>
<path fill="#010202" d="M15.945,19.5c-0.2,0-0.386-0.12-0.463-0.313l-0.824-2.037c-0.095-0.02-0.189-0.042-0.284-0.067
	c-0.095-0.024-0.188-0.052-0.278-0.082l-1.745,1.356c-0.198,0.154-0.481,0.137-0.66-0.041l-3.001-3
	c-0.178-0.179-0.196-0.462-0.041-0.661l1.354-1.739c-0.034-0.098-0.063-0.197-0.087-0.297c-0.022-0.09-0.042-0.18-0.06-0.271
	l-2.051-0.837c-0.233-0.095-0.359-0.349-0.294-0.592l1.091-4.092C8.666,6.583,8.905,6.423,9.152,6.46l2.2,0.303
	c0.005-0.006,0.011-0.012,0.017-0.017l0.37-0.37c0.006-0.006,0.012-0.012,0.019-0.019L11.454,4.16
	c-0.035-0.25,0.123-0.486,0.366-0.551l4.092-1.091c0.244-0.065,0.497,0.062,0.592,0.294l0.837,2.051
	c0.097,0.021,0.192,0.043,0.288,0.069c0.094,0.024,0.186,0.052,0.275,0.081l1.745-1.356c0.2-0.155,0.483-0.137,0.66,0.041
	l3.001,3.001c0.179,0.178,0.196,0.461,0.041,0.661l-1.354,1.739c0.034,0.098,0.063,0.197,0.087,0.297
	c0.022,0.09,0.042,0.18,0.061,0.271l2.051,0.837c0.232,0.095,0.358,0.349,0.294,0.592l-1.091,4.092
	c-0.065,0.243-0.295,0.397-0.552,0.366l-2.2-0.303c-0.006,0.006-0.012,0.012-0.018,0.019l-0.368,0.368
	c-0.01,0.009-0.019,0.019-0.028,0.027l0.299,2.176c0.034,0.25-0.122,0.486-0.366,0.552l-4.092,1.092
	C16.031,19.494,15.988,19.5,15.945,19.5z M14.009,15.936c0.065,0,0.13,0.013,0.192,0.038c0.134,0.056,0.274,0.104,0.424,0.142
	c0.157,0.041,0.314,0.075,0.471,0.1c0.173,0.027,0.32,0.144,0.386,0.307l0.761,1.882l3.238-0.864l-0.279-2.031
	c-0.028-0.205,0.072-0.405,0.253-0.506c0.039-0.022,0.074-0.047,0.103-0.075l0.365-0.366c0.044-0.044,0.087-0.094,0.128-0.147
	c0.108-0.143,0.278-0.219,0.465-0.191l2.031,0.279l0.863-3.24l-1.897-0.774c-0.16-0.066-0.275-0.21-0.304-0.382
	c-0.026-0.16-0.057-0.318-0.095-0.474c-0.034-0.139-0.081-0.277-0.142-0.413c-0.076-0.168-0.052-0.365,0.062-0.511l1.257-1.615
	l-2.376-2.377l-1.617,1.257c-0.142,0.11-0.333,0.135-0.498,0.067c-0.135-0.056-0.275-0.103-0.426-0.142
	c-0.158-0.042-0.313-0.075-0.47-0.099c-0.173-0.027-0.319-0.143-0.385-0.305l-0.774-1.897l-3.24,0.864l0.279,2.031
	c0.025,0.179-0.048,0.356-0.192,0.466c-0.053,0.041-0.102,0.082-0.146,0.125l-0.37,0.37c-0.042,0.043-0.085,0.093-0.126,0.147
	c-0.11,0.143-0.286,0.217-0.466,0.192l-2.031-0.28l-0.863,3.24l1.897,0.774c0.161,0.066,0.276,0.21,0.305,0.382
	c0.026,0.161,0.057,0.318,0.095,0.475c0.034,0.139,0.081,0.276,0.142,0.412c0.075,0.168,0.052,0.365-0.062,0.511l-1.257,1.615
	l2.377,2.376l1.617-1.256C13.791,15.972,13.899,15.936,14.009,15.936z M16,14.208c-0.881,0-1.642-0.316-2.263-0.938
	c-0.632-0.63-0.95-1.395-0.944-2.272c0.004-0.872,0.322-1.63,0.944-2.253c0.622-0.622,1.379-0.939,2.253-0.944
	c0.001,0,0.02,0,0.021,0c0.868,0,1.625,0.317,2.251,0.944c0.623,0.624,0.938,1.385,0.938,2.263c0,0.879-0.315,1.641-0.938,2.263
	C17.642,13.892,16.88,14.208,16,14.208z M15.996,8.799c-0.61,0.003-1.117,0.216-1.552,0.651c-0.435,0.436-0.648,0.944-0.651,1.552
	c-0.004,0.609,0.209,1.119,0.651,1.56c0.434,0.435,0.942,0.646,1.554,0.646c0.616,0,1.124-0.211,1.558-0.645
	c0.435-0.435,0.646-0.944,0.646-1.557c0-0.612-0.211-1.121-0.646-1.557c-0.438-0.438-0.943-0.65-1.544-0.65H15.996z M5.964,27.793
	c-0.073,0-0.146-0.016-0.214-0.048c-0.171-0.082-0.281-0.252-0.286-0.441L5.347,22H3.5C1.57,22,0,20.43,0,18.5v-15
	C0,1.57,1.57,0,3.5,0h25C30.43,0,32,1.57,32,3.5v15c0,1.93-1.57,3.5-3.5,3.5H13.566l-7.295,5.688
	C6.182,27.757,6.073,27.793,5.964,27.793z M3.5,1C2.122,1,1,2.122,1,3.5v15C1,19.879,2.122,21,3.5,21h2.336
	c0.272,0,0.494,0.217,0.5,0.489l0.106,4.797l6.645-5.181C13.175,21.037,13.283,21,13.395,21H28.5c1.379,0,2.5-1.121,2.5-2.5v-15
	C31,2.122,29.879,1,28.5,1H3.5z"/>
</svg>
