<?xml version="1.0" encoding="utf-8"?>
<!-- Generator: Adobe Illustrator 15.0.0, SVG Export Plug-In . SVG Version: 6.00 Build 0)  -->
<!DOCTYPE svg PUBLIC "-//W3C//DTD SVG 1.1//EN" "http://www.w3.org/Graphics/SVG/1.1/DTD/svg11.dtd">
<svg version="1.1" id="feedback" xmlns="http://www.w3.org/2000/svg" xmlns:xlink="http://www.w3.org/1999/xlink" x="0px" y="0px"
	 width="32px" height="22px" viewBox="0 0 32 22" enable-background="new 0 0 32 22" xml:space="preserve">
<path fill="#E31013" d="M16.254,19.166c-0.12,0-0.239-0.043-0.334-0.128l-1.15-1.031c-1.339-1.207-2.46-2.261-3.332-3.133
	c-0.886-0.887-1.603-1.696-2.131-2.406c-0.541-0.727-0.928-1.416-1.15-2.046C7.933,9.787,7.819,9.131,7.819,8.471
	c0-1.374,0.47-2.541,1.397-3.468c0.925-0.927,2.091-1.396,3.467-1.396c0.759,0,1.491,0.163,2.176,0.484
	c0.516,0.241,0.983,0.561,1.395,0.955c0.412-0.394,0.879-0.714,1.395-0.955c0.685-0.321,1.417-0.483,2.176-0.483
	c1.375,0,2.542,0.47,3.467,1.397c0.927,0.926,1.397,2.092,1.397,3.467c0,0.663-0.113,1.32-0.337,1.952
	c-0.223,0.63-0.609,1.318-1.15,2.045c-0.528,0.709-1.244,1.519-2.131,2.406c-0.872,0.872-1.993,1.926-3.331,3.132l-1.153,1.032
	C16.493,19.123,16.373,19.166,16.254,19.166z M28.5,21c1.379,0,2.5-1.121,2.5-2.5v-15C31,2.122,29.879,1,28.5,1h-25
	C2.122,1,1,2.122,1,3.5v15C1,19.879,2.122,21,3.5,21"/>
<path fill="#F6F6F6" d="M12.684,4.606c-1.116,0-2.019,0.361-2.759,1.103C9.181,6.453,8.819,7.356,8.819,8.471
	c0,0.547,0.094,1.091,0.28,1.619c0.189,0.536,0.528,1.135,1.01,1.782c0.499,0.67,1.184,1.443,2.035,2.295
	c0.86,0.86,1.968,1.901,3.294,3.097l0.815,0.731l0.817-0.732c1.325-1.194,2.433-2.235,3.293-3.096
	c0.852-0.853,1.536-1.625,2.035-2.295c0.481-0.646,0.821-1.246,1.01-1.782c0.187-0.525,0.28-1.069,0.28-1.619
	c0-1.115-0.361-2.018-1.104-2.761c-0.741-0.743-1.644-1.104-2.76-1.104c-0.611,0-1.2,0.131-1.752,0.389s-1.036,0.628-1.438,1.102
	C16.54,6.208,16.4,6.273,16.254,6.273c0,0,0,0,0,0c-0.146,0-0.286-0.064-0.38-0.176c-0.401-0.473-0.885-0.843-1.437-1.101
	C13.884,4.737,13.294,4.606,12.684,4.606z"/>
<path fill="#010202" d="M16.254,19.166c-0.12,0-0.239-0.043-0.334-0.128l-1.15-1.031c-1.339-1.207-2.46-2.261-3.332-3.133
	c-0.886-0.887-1.603-1.696-2.131-2.406c-0.541-0.727-0.928-1.416-1.15-2.046C7.933,9.787,7.819,9.131,7.819,8.471
	c0-1.374,0.47-2.541,1.397-3.468c0.925-0.927,2.091-1.396,3.467-1.396c0.759,0,1.491,0.163,2.176,0.484
	c0.516,0.241,0.983,0.561,1.395,0.955c0.412-0.394,0.879-0.714,1.395-0.955c0.685-0.321,1.417-0.483,2.176-0.483
	c1.375,0,2.542,0.47,3.467,1.397c0.927,0.926,1.397,2.092,1.397,3.467c0,0.663-0.113,1.32-0.337,1.952
	c-0.223,0.63-0.609,1.318-1.15,2.045c-0.528,0.709-1.244,1.519-2.131,2.406c-0.872,0.872-1.993,1.926-3.331,3.132l-1.153,1.032
	C16.493,19.123,16.373,19.166,16.254,19.166z M12.684,4.606c-1.116,0-2.019,0.361-2.759,1.103C9.181,6.453,8.819,7.356,8.819,8.471
	c0,0.547,0.094,1.091,0.28,1.619c0.189,0.536,0.528,1.135,1.01,1.782c0.499,0.67,1.184,1.443,2.035,2.295
	c0.86,0.86,1.968,1.901,3.294,3.097l0.815,0.731l0.817-0.732c1.325-1.194,2.433-2.235,3.293-3.096
	c0.852-0.853,1.536-1.625,2.035-2.295c0.481-0.646,0.821-1.246,1.01-1.782c0.187-0.525,0.28-1.069,0.28-1.619
	c0-1.115-0.361-2.018-1.104-2.761c-0.741-0.743-1.644-1.104-2.76-1.104c-0.611,0-1.2,0.131-1.752,0.389s-1.036,0.628-1.438,1.102
	C16.54,6.208,16.4,6.273,16.254,6.273c0,0,0,0,0,0c-0.146,0-0.286-0.064-0.38-0.176c-0.401-0.473-0.885-0.843-1.437-1.101
	C13.884,4.737,13.294,4.606,12.684,4.606z M3.5,22C1.57,22,0,20.43,0,18.5v-15C0,1.57,1.57,0,3.5,0h25C30.43,0,32,1.57,32,3.5v15
	c0,1.93-1.57,3.5-3.5,3.5 M28.5,21c1.379,0,2.5-1.121,2.5-2.5v-15C31,2.122,29.879,1,28.5,1h-25C2.122,1,1,2.122,1,3.5v15
	C1,19.879,2.122,21,3.5,21"/>
</svg>
