<?xml version="1.0" encoding="utf-8"?>
<!-- Generator: Adobe Illustrator 15.0.0, SVG Export Plug-In . SVG Version: 6.00 Build 0)  -->
<!DOCTYPE svg PUBLIC "-//W3C//DTD SVG 1.1//EN" "http://www.w3.org/Graphics/SVG/1.1/DTD/svg11.dtd">
<svg version="1.1" id="home" xmlns="http://www.w3.org/2000/svg" xmlns:xlink="http://www.w3.org/1999/xlink" x="0px" y="0px"
	 width="32px" height="22px" viewBox="0 0 32 22" enable-background="new 0 0 32 22" xml:space="preserve">
<path fill="#D89243" d="M28.5,1h-25C2.122,1,1,2.122,1,3.5v15C1,19.879,2.122,21,3.5,21h25c1.379,0,2.5-1.121,2.5-2.5v-15
	C31,2.122,29.879,1,28.5,1z M24.847,9.065c-0.07,0.201-0.26,0.335-0.472,0.335h-0.001L23,9.396V18.5c0,0.276-0.224,0.5-0.5,0.5h-4
	c-0.276,0-0.5-0.224-0.5-0.5v-4.267c0.037-0.469,0.006-1.71-0.556-2.321c-0.235-0.255-0.544-0.379-0.944-0.379
	c-0.354,0-0.636,0.114-0.86,0.348c-0.582,0.608-0.64,1.887-0.64,2.33V18.5c0,0.276-0.224,0.5-0.5,0.5h-4c-0.276,0-0.5-0.224-0.5-0.5
	V9.422L8.399,9.4c-0.21-0.003-0.397-0.137-0.466-0.336c-0.069-0.199-0.005-0.42,0.158-0.552l7.906-6.4
	c0.181-0.148,0.441-0.149,0.625-0.003l8.062,6.4C24.853,8.641,24.917,8.864,24.847,9.065z"/>
<path fill="#F6F6F6" d="M22.501,8.395L22.501,8.395c-0.134,0-0.261,0.052-0.354,0.146S22,8.762,22,8.895V18h-3l-0.002-3.724
	c0.007-0.08,0.159-1.976-0.815-3.038c-0.43-0.468-0.995-0.705-1.683-0.705c-0.634,0-1.167,0.222-1.585,0.659
	c-0.997,1.044-0.918,2.982-0.915,3.041V18h-3V8.929c0-0.273-0.22-0.496-0.493-0.5l-0.712-0.01l6.521-5.278l6.62,5.255L22.501,8.395z
	"/>
<path fill="#010202" d="M28.5,0h-25C1.57,0,0,1.57,0,3.5v15C0,20.43,1.57,22,3.5,22h25c1.93,0,3.5-1.57,3.5-3.5v-15
	C32,1.57,30.43,0,28.5,0z M31,18.5c0,1.379-1.121,2.5-2.5,2.5h-25C2.122,21,1,19.879,1,18.5v-15C1,2.122,2.122,1,3.5,1h25
	C29.879,1,31,2.122,31,3.5V18.5z M16.624,2.108c-0.185-0.146-0.444-0.146-0.625,0.003l-7.906,6.4
	C7.928,8.644,7.865,8.865,7.934,9.063C8.002,9.263,8.189,9.397,8.399,9.4L10,9.422V18.5c0,0.276,0.224,0.5,0.5,0.5h4
	c0.276,0,0.5-0.224,0.5-0.5v-4.289c0-0.442,0.058-1.722,0.64-2.33c0.225-0.234,0.506-0.348,0.86-0.348
	c0.4,0,0.709,0.124,0.944,0.379c0.562,0.611,0.593,1.852,0.556,2.321V18.5c0,0.276,0.224,0.5,0.5,0.5h4c0.276,0,0.5-0.224,0.5-0.5
	V9.396L24.374,9.4h0.001c0.212,0,0.401-0.134,0.472-0.335s0.006-0.424-0.161-0.557L16.624,2.108z M22.501,8.395L22.501,8.395
	c-0.134,0-0.261,0.052-0.354,0.146S22,8.762,22,8.895V18h-3l-0.002-3.724c0.007-0.08,0.159-1.976-0.815-3.038
	c-0.43-0.468-0.995-0.705-1.683-0.705c-0.634,0-1.167,0.222-1.585,0.659c-0.997,1.044-0.918,2.982-0.915,3.041V18h-3V8.929
	c0-0.273-0.22-0.496-0.493-0.5l-0.712-0.01l6.521-5.278l6.62,5.255L22.501,8.395z"/>
</svg>
