<?xml version="1.0" encoding="utf-8"?>
<!-- Generator: Adobe Illustrator 15.0.0, SVG Export Plug-In . SVG Version: 6.00 Build 0)  -->
<!DOCTYPE svg PUBLIC "-//W3C//DTD SVG 1.1//EN" "http://www.w3.org/Graphics/SVG/1.1/DTD/svg11.dtd">
<svg version="1.1" id="Ebene_1" xmlns="http://www.w3.org/2000/svg" xmlns:xlink="http://www.w3.org/1999/xlink" x="0px" y="0px"
	 width="32px" height="22px" viewBox="0 0 32 22" enable-background="new 0 0 32 22" xml:space="preserve">
<path fill="#469735" d="M28.5,1h-25C2.122,1,1,2.122,1,3.5v15C1,19.879,2.122,21,3.5,21h25c1.379,0,2.5-1.121,2.5-2.5v-15
	C31,2.122,29.879,1,28.5,1z M22.707,14.883c-0.394,0.909-0.941,1.718-1.627,2.402c-0.683,0.685-1.491,1.232-2.402,1.628
	c-0.919,0.4-1.908,0.603-2.94,0.603c-1.034,0-2.023-0.202-2.941-0.603c-0.913-0.396-1.722-0.944-2.404-1.628
	c-0.684-0.683-1.231-1.492-1.626-2.403c-0.399-0.915-0.602-1.905-0.602-2.94c0-1.035,0.203-2.024,0.602-2.94
	c0.395-0.91,0.942-1.719,1.626-2.403c0.547-0.546,1.192-0.979,1.886-1.344c-0.036-0.069-0.061-0.144-0.061-0.227V3.015
	c0-0.276,0.224-0.5,0.5-0.5h6.039c0.276,0,0.5,0.224,0.5,0.5v2.013c0,0.065-0.015,0.126-0.037,0.183
	c0.31,0.158,0.612,0.337,0.904,0.536l0.8-0.8c0.188-0.188,0.52-0.188,0.707,0l1.101,1.101c0.094,0.094,0.146,0.221,0.146,0.354
	s-0.053,0.26-0.146,0.354l-0.8,0.799c0.406,0.595,0.728,1.227,0.957,1.885c0.28,0.794,0.422,1.637,0.422,2.503
	C23.311,12.978,23.107,13.968,22.707,14.883z"/>
<path fill="#F6F6F6" d="M20.879,7.804c-0.151-0.199-0.132-0.479,0.045-0.656l0.747-0.747l-0.394-0.394l-0.746,0.747
	c-0.177,0.176-0.457,0.194-0.655,0.045c-0.613-0.465-1.274-0.824-1.967-1.067c-0.688-0.241-1.419-0.364-2.172-0.364
	c-0.897,0-1.752,0.174-2.542,0.518C12.4,6.233,11.695,6.71,11.1,7.305C10.505,7.9,10.028,8.605,9.683,9.4
	c-0.344,0.791-0.519,1.645-0.519,2.542s0.175,1.751,0.519,2.541c0.345,0.797,0.822,1.502,1.417,2.096
	c0.594,0.595,1.299,1.071,2.096,1.419c1.579,0.687,3.496,0.688,5.083-0.001c0.795-0.346,1.499-0.822,2.094-1.418
	c0.596-0.596,1.073-1.3,1.417-2.095c0.346-0.789,0.521-1.645,0.521-2.542c0-0.753-0.123-1.483-0.365-2.172
	C21.703,9.077,21.345,8.416,20.879,7.804z M16.237,12.451c0,0.276-0.224,0.5-0.5,0.5s-0.5-0.224-0.5-0.5V7.864
	c0-0.276,0.224-0.5,0.5-0.5s0.5,0.224,0.5,0.5V12.451z M13.218,4.812V3.515h5.039v1.282c-0.006-0.002-0.011-0.005-0.017-0.007
	C16.638,4.227,14.809,4.239,13.218,4.812z"/>
<path fill="#010202" d="M22.889,9.439c-0.229-0.658-0.551-1.29-0.957-1.885l0.8-0.799c0.094-0.094,0.146-0.221,0.146-0.354
	s-0.053-0.26-0.146-0.354l-1.101-1.101c-0.188-0.188-0.52-0.188-0.707,0l-0.8,0.8c-0.292-0.199-0.595-0.378-0.904-0.536
	c0.022-0.057,0.037-0.118,0.037-0.183V3.015c0-0.276-0.224-0.5-0.5-0.5h-6.039c-0.276,0-0.5,0.224-0.5,0.5v2.013
	c0,0.083,0.025,0.158,0.061,0.227c-0.694,0.365-1.339,0.797-1.886,1.344C9.708,7.282,9.161,8.091,8.766,9.001
	c-0.399,0.916-0.602,1.905-0.602,2.94c0,1.035,0.203,2.025,0.602,2.94c0.396,0.911,0.943,1.721,1.626,2.403
	c0.683,0.684,1.492,1.231,2.404,1.628c0.917,0.4,1.907,0.603,2.941,0.603c1.032,0,2.021-0.202,2.94-0.603
	c0.911-0.396,1.72-0.943,2.402-1.628c0.686-0.685,1.233-1.493,1.627-2.402c0.4-0.915,0.604-1.905,0.604-2.941
	C23.311,11.076,23.169,10.233,22.889,9.439z M18.257,3.515v1.282c-0.006-0.002-0.011-0.005-0.017-0.007
	c-1.603-0.563-3.431-0.55-5.022,0.022V3.515H18.257z M21.79,14.483c-0.344,0.795-0.821,1.499-1.417,2.095
	c-0.595,0.596-1.299,1.072-2.094,1.418c-1.587,0.689-3.504,0.688-5.083,0.001c-0.797-0.348-1.502-0.824-2.096-1.419
	c-0.595-0.594-1.071-1.299-1.417-2.096c-0.344-0.789-0.519-1.644-0.519-2.541S9.339,10.19,9.683,9.4
	c0.345-0.795,0.822-1.5,1.417-2.095c0.595-0.595,1.3-1.072,2.096-1.418c0.789-0.344,1.644-0.518,2.542-0.518
	c0.753,0,1.484,0.123,2.172,0.364c0.692,0.243,1.354,0.602,1.967,1.067c0.198,0.149,0.479,0.131,0.655-0.045l0.746-0.747
	l0.394,0.394l-0.747,0.747c-0.177,0.177-0.196,0.457-0.045,0.656c0.466,0.612,0.824,1.273,1.066,1.966
	c0.242,0.688,0.365,1.419,0.365,2.172C22.311,12.839,22.136,13.694,21.79,14.483z M15.737,12.951c-0.276,0-0.5-0.224-0.5-0.5V7.864
	c0-0.276,0.224-0.5,0.5-0.5s0.5,0.224,0.5,0.5v4.587C16.237,12.728,16.014,12.951,15.737,12.951z M28.5,22h-25
	C1.57,22,0,20.43,0,18.5v-15C0,1.57,1.57,0,3.5,0h25C30.43,0,32,1.57,32,3.5v15C32,20.43,30.43,22,28.5,22z M3.5,1
	C2.122,1,1,2.122,1,3.5v15C1,19.879,2.122,21,3.5,21h25c1.379,0,2.5-1.121,2.5-2.5v-15C31,2.122,29.879,1,28.5,1H3.5z"/>
</svg>
