<?xml version="1.0" encoding="utf-8"?>
<!-- Generator: Adobe Illustrator 15.0.0, SVG Export Plug-In . SVG Version: 6.00 Build 0)  -->
<!DOCTYPE svg PUBLIC "-//W3C//DTD SVG 1.1//EN" "http://www.w3.org/Graphics/SVG/1.1/DTD/svg11.dtd">
<svg version="1.1" id="topic_on" xmlns="http://www.w3.org/2000/svg" xmlns:xlink="http://www.w3.org/1999/xlink" x="0px" y="0px"
	 width="32px" height="27.793px" viewBox="0 0 32 27.793" enable-background="new 0 0 32 27.793" xml:space="preserve">
<path fill="#B38BBF" d="M28.5,1h-25C2.122,1,1,2.122,1,3.5v15C1,19.879,2.122,21,3.5,21h2.336c0.272,0,0.494,0.217,0.5,0.489
	l0.106,4.797l6.645-5.181C13.175,21.037,13.283,21,13.395,21H28.5c1.379,0,2.5-1.121,2.5-2.5v-15C31,2.122,29.879,1,28.5,1z
	 M23.834,17.223c0,0.611-0.195,1.145-0.581,1.584c-0.395,0.453-0.904,0.693-1.475,0.693H10.89c-0.57,0-1.08-0.24-1.476-0.694
	c-0.385-0.438-0.58-0.972-0.58-1.583V4.778c0-0.612,0.195-1.145,0.581-1.585C9.81,2.74,10.32,2.5,10.89,2.5h7.778
	c0.145,0,0.281,0.062,0.376,0.171l4.666,5.333c0.08,0.091,0.124,0.208,0.124,0.329V17.223z"/>
<path fill="#F6F6F6" d="M21.778,18.5c0.284,0,0.513-0.111,0.722-0.351c0.225-0.257,0.334-0.56,0.334-0.927V8.521L18.441,3.5H10.89
	c-0.284,0-0.513,0.111-0.722,0.351c-0.225,0.257-0.334,0.56-0.334,0.927v12.445c0,0.367,0.109,0.67,0.333,0.926
	c0.209,0.24,0.439,0.352,0.723,0.352H21.778z M12.116,6.944h5.445c0.276,0,0.5,0.224,0.5,0.5s-0.224,0.5-0.5,0.5h-5.445
	c-0.276,0-0.5-0.224-0.5-0.5S11.84,6.944,12.116,6.944z M12.116,10.5h7.778c0.276,0,0.5,0.224,0.5,0.5s-0.224,0.5-0.5,0.5h-7.778
	c-0.276,0-0.5-0.224-0.5-0.5S11.84,10.5,12.116,10.5z M12.116,14.056h7.778c0.276,0,0.5,0.224,0.5,0.5s-0.224,0.5-0.5,0.5h-7.778
	c-0.276,0-0.5-0.224-0.5-0.5S11.84,14.056,12.116,14.056z"/>
<path fill="#010202" d="M28.5,0h-25C1.57,0,0,1.57,0,3.5v15C0,20.43,1.57,22,3.5,22h1.847l0.117,5.304
	c0.004,0.189,0.115,0.359,0.286,0.441c0.068,0.032,0.142,0.048,0.214,0.048c0.109,0,0.218-0.036,0.308-0.105L13.566,22H28.5
	c1.93,0,3.5-1.57,3.5-3.5v-15C32,1.57,30.43,0,28.5,0z M31,18.5c0,1.379-1.121,2.5-2.5,2.5H13.395c-0.111,0-0.22,0.037-0.308,0.105
	l-6.645,5.181l-0.106-4.797C6.33,21.217,6.108,21,5.836,21H3.5C2.122,21,1,19.879,1,18.5v-15C1,2.122,2.122,1,3.5,1h25
	C29.879,1,31,2.122,31,3.5V18.5z M20.395,14.556c0,0.276-0.224,0.5-0.5,0.5h-7.778c-0.276,0-0.5-0.224-0.5-0.5s0.224-0.5,0.5-0.5
	h7.778C20.171,14.056,20.395,14.279,20.395,14.556z M11.616,7.444c0-0.276,0.224-0.5,0.5-0.5h5.445c0.276,0,0.5,0.224,0.5,0.5
	s-0.224,0.5-0.5,0.5h-5.445C11.84,7.944,11.616,7.721,11.616,7.444z M12.116,10.5h7.778c0.276,0,0.5,0.224,0.5,0.5
	s-0.224,0.5-0.5,0.5h-7.778c-0.276,0-0.5-0.224-0.5-0.5S11.84,10.5,12.116,10.5z M19.044,2.671C18.949,2.562,18.813,2.5,18.668,2.5
	H10.89c-0.57,0-1.08,0.24-1.475,0.693c-0.386,0.44-0.581,0.973-0.581,1.585v12.445c0,0.611,0.195,1.145,0.58,1.583
	C9.81,19.26,10.32,19.5,10.89,19.5h10.889c0.57,0,1.08-0.24,1.475-0.693c0.386-0.439,0.581-0.973,0.581-1.584V8.333
	c0-0.121-0.044-0.238-0.124-0.329L19.044,2.671z M22.834,17.223c0,0.367-0.109,0.67-0.334,0.927
	c-0.209,0.239-0.438,0.351-0.722,0.351H10.89c-0.284,0-0.513-0.111-0.723-0.352c-0.224-0.256-0.333-0.559-0.333-0.926V4.778
	c0-0.367,0.109-0.67,0.334-0.927C10.376,3.611,10.606,3.5,10.89,3.5h7.552l4.393,5.021V17.223z"/>
</svg>
