<?xml version="1.0" encoding="utf-8"?>
<!-- Generator: Adobe Illustrator 15.0.0, SVG Export Plug-In . SVG Version: 6.00 Build 0)  -->
<!DOCTYPE svg PUBLIC "-//W3C//DTD SVG 1.1//EN" "http://www.w3.org/Graphics/SVG/1.1/DTD/svg11.dtd">
<svg version="1.1" id="Uset_on" xmlns="http://www.w3.org/2000/svg" xmlns:xlink="http://www.w3.org/1999/xlink" x="0px" y="0px"
	 width="32px" height="27.793px" viewBox="0 0 32 27.793" enable-background="new 0 0 32 27.793" xml:space="preserve">
<path fill="#FBB826" d="M28.5,1h-25C2.122,1,1,2.122,1,3.5v15C1,19.879,2.122,21,3.5,21h2.336c0.272,0,0.494,0.217,0.5,0.489
	l0.106,4.797l6.645-5.181C13.175,21.037,13.283,21,13.395,21H28.5c1.379,0,2.5-1.121,2.5-2.5v-15C31,2.122,29.879,1,28.5,1z
	 M22.854,19.571H9.146c-0.276,0-0.5-0.224-0.5-0.5c0-4.739,2.049-7.941,5.458-8.79c-1.391-0.666-2.361-2.076-2.361-3.718
	c0-2.279,1.854-4.132,4.132-4.132s4.132,1.854,4.132,4.132c0,1.604-0.928,2.982-2.267,3.667c3.547,0.763,5.614,3.945,5.614,8.841
	C23.354,19.348,23.131,19.571,22.854,19.571z"/>
<path fill="#FFFFFF" d="M12.743,6.563c0-1.727,1.405-3.132,3.132-3.132c1.727,0,3.132,1.405,3.132,3.132
	c0,1.728-1.405,3.133-3.132,3.133C14.148,9.696,12.743,8.291,12.743,6.563z M16.002,11.049c-3.846,0-6.194,2.801-6.348,7.522h12.691
	C22.254,15.964,21.369,11.049,16.002,11.049z"/>
<path fill="#010202" d="M17.74,10.23c1.339-0.685,2.267-2.063,2.267-3.667c0-2.279-1.854-4.132-4.132-4.132
	s-4.132,1.854-4.132,4.132c0,1.643,0.97,3.052,2.361,3.718c-3.409,0.849-5.458,4.05-5.458,8.79c0,0.276,0.224,0.5,0.5,0.5h13.708
	c0.276,0,0.5-0.224,0.5-0.5C23.354,14.175,21.287,10.993,17.74,10.23z M12.743,6.563c0-1.727,1.405-3.132,3.132-3.132
	c1.727,0,3.132,1.405,3.132,3.132c0,1.728-1.405,3.133-3.132,3.133C14.148,9.696,12.743,8.291,12.743,6.563z M9.654,18.571
	c0.154-4.722,2.502-7.522,6.348-7.522c5.367,0,6.252,4.915,6.344,7.522H9.654z M28.5,0h-25C1.57,0,0,1.57,0,3.5v15
	C0,20.43,1.57,22,3.5,22h1.847l0.117,5.304c0.004,0.189,0.115,0.359,0.286,0.441c0.068,0.032,0.142,0.048,0.214,0.048
	c0.109,0,0.218-0.036,0.308-0.105L13.566,22H28.5c1.93,0,3.5-1.57,3.5-3.5v-15C32,1.57,30.43,0,28.5,0z M31,18.5
	c0,1.379-1.121,2.5-2.5,2.5H13.395c-0.111,0-0.22,0.037-0.308,0.105l-6.645,5.181l-0.106-4.797C6.33,21.217,6.108,21,5.836,21H3.5
	C2.122,21,1,19.879,1,18.5v-15C1,2.122,2.122,1,3.5,1h25C29.879,1,31,2.122,31,3.5V18.5z"/>
</svg>
