<?xml version="1.0" encoding="utf-8"?>
<!-- Generator: Adobe Illustrator 15.0.0, SVG Export Plug-In . SVG Version: 6.00 Build 0)  -->
<!DOCTYPE svg PUBLIC "-//W3C//DTD SVG 1.1//EN" "http://www.w3.org/Graphics/SVG/1.1/DTD/svg11.dtd">
<svg version="1.1" id="uSet" xmlns="http://www.w3.org/2000/svg" xmlns:xlink="http://www.w3.org/1999/xlink" x="0px" y="0px"
	 width="32px" height="22px" viewBox="0 0 32 22" enable-background="new 0 0 32 22" xml:space="preserve">
<path fill="#FBB826" d="M28.5,1h-25C2.122,1,1,2.122,1,3.5v15C1,19.879,2.122,21,3.5,21h25c1.379,0,2.5-1.121,2.5-2.5v-15
	C31,2.122,29.879,1,28.5,1z M22.854,19.57H9.146c-0.276,0-0.5-0.224-0.5-0.5c0-4.739,2.049-7.941,5.458-8.79
	c-1.391-0.666-2.361-2.076-2.361-3.718c0-2.279,1.854-4.132,4.132-4.132s4.132,1.854,4.132,4.132c0,1.604-0.928,2.982-2.267,3.667
	c3.547,0.763,5.614,3.945,5.614,8.841C23.354,19.347,23.13,19.57,22.854,19.57z"/>
<path fill="#FFFFFF" d="M22.345,18.57H9.653c0.154-4.722,2.502-7.522,6.348-7.522C21.368,11.048,22.253,15.963,22.345,18.57z
	 M15.874,9.695c1.727,0,3.132-1.405,3.132-3.133c0-1.727-1.405-3.132-3.132-3.132c-1.727,0-3.132,1.405-3.132,3.132
	C12.742,8.29,14.147,9.695,15.874,9.695z"/>
<path fill="#010202" d="M28.5,0h-25C1.57,0,0,1.57,0,3.5v15C0,20.43,1.57,22,3.5,22h25c1.93,0,3.5-1.57,3.5-3.5v-15
	C32,1.57,30.43,0,28.5,0z M31,18.5c0,1.379-1.121,2.5-2.5,2.5h-25C2.122,21,1,19.879,1,18.5v-15C1,2.122,2.122,1,3.5,1h25
	C29.879,1,31,2.122,31,3.5V18.5z M17.739,10.229c1.339-0.685,2.267-2.063,2.267-3.667c0-2.279-1.854-4.132-4.132-4.132
	s-4.132,1.854-4.132,4.132c0,1.643,0.97,3.052,2.361,3.718c-3.409,0.849-5.458,4.05-5.458,8.79c0,0.276,0.224,0.5,0.5,0.5h13.708
	c0.276,0,0.5-0.224,0.5-0.5C23.354,14.174,21.286,10.992,17.739,10.229z M9.653,18.57c0.154-4.722,2.502-7.522,6.348-7.522
	c5.367,0,6.252,4.915,6.344,7.522H9.653z M15.874,3.43c1.727,0,3.132,1.405,3.132,3.132c0,1.728-1.405,3.133-3.132,3.133
	c-1.727,0-3.132-1.405-3.132-3.133C12.742,4.835,14.147,3.43,15.874,3.43z"/>
</svg>
